<?xml version="1.0" encoding="UTF-8" standalone="no"?>
<!-- Created with Inkscape (http://www.inkscape.org/) -->

<svg
   xmlns:dc="http://purl.org/dc/elements/1.1/"
   xmlns:cc="http://creativecommons.org/ns#"
   xmlns:rdf="http://www.w3.org/1999/02/22-rdf-syntax-ns#"
   xmlns:svg="http://www.w3.org/2000/svg"
   xmlns="http://www.w3.org/2000/svg"
   xmlns:sodipodi="http://sodipodi.sourceforge.net/DTD/sodipodi-0.dtd"
   xmlns:inkscape="http://www.inkscape.org/namespaces/inkscape"
   width="10"
   height="10"
   id="svg2"
   version="1.1"
   inkscape:version="0.48.4 r9939"
   sodipodi:docname="Nouveau document 1">
  <defs
     id="defs4" />
  <sodipodi:namedview
     id="base"
     pagecolor="#ffffff"
     bordercolor="#666666"
     borderopacity="1.0"
     inkscape:pageopacity="0.0"
     inkscape:pageshadow="2"
     inkscape:zoom="63.356767"
     inkscape:cx="5.96159"
     inkscape:cy="6.3572661"
     inkscape:document-units="px"
     inkscape:current-layer="layer1"
     showgrid="false"
     inkscape:window-width="1920"
     inkscape:window-height="1021"
     inkscape:window-x="-2"
     inkscape:window-y="36"
     inkscape:window-maximized="1" />
  <metadata
     id="metadata7">
    <rdf:RDF>
      <cc:Work
         rdf:about="">
        <dc:format>image/svg+xml</dc:format>
        <dc:type
           rdf:resource="http://purl.org/dc/dcmitype/StillImage" />
        <dc:title></dc:title>
      </cc:Work>
    </rdf:RDF>
  </metadata>
  <g
     inkscape:label="Calque 1"
     inkscape:groupmode="layer"
     id="layer1"
     transform="translate(0,-1042.3622)">
    <path
       sodipodi:type="arc"
       style="fill:#000000;fill-opacity:1;fill-rule:evenodd;stroke:none"
       id="path2985"
       sodipodi:cx="0.48929265"
       sodipodi:cy="0.56138712"
       sodipodi:rx="1.0259361"
       sodipodi:ry="0.99436891"
       d="m 1.5152288,0.56138712 a 1.0259361,0.99436891 0 1 1 -2.05187228,0 1.0259361,0.99436891 0 1 1 2.05187228,0 z"
       transform="matrix(0.53846151,0,0,0.57142857,0.92030726,1043.0763)" />
    <path
       sodipodi:type="arc"
       style="fill:#000000;fill-opacity:1;fill-rule:evenodd;stroke:none"
       id="path2985-8"
       sodipodi:cx="0.48929265"
       sodipodi:cy="0.56138712"
       sodipodi:rx="1.0259361"
       sodipodi:ry="0.99436891"
       d="m 1.5152288,0.56138712 a 1.0259361,0.99436891 0 1 1 -2.05187228,0 1.0259361,0.99436891 0 1 1 2.05187228,0 z"
       transform="matrix(0.35384612,0,0,0.31746032,2.8573233,1043.5819)" />
    <path
       sodipodi:type="arc"
       style="fill:#000000;fill-opacity:1;fill-rule:evenodd;stroke:none"
       id="path2985-6"
       sodipodi:cx="0.48929265"
       sodipodi:cy="0.56138712"
       sodipodi:rx="1.0259361"
       sodipodi:ry="0.99436891"
       d="m 1.5152288,0.56138712 a 1.0259361,0.99436891 0 1 1 -2.05187228,0 1.0259361,0.99436891 0 1 1 2.05187228,0 z"
       transform="matrix(0.30769227,0,0,0.38095238,4.1583804,1043.0254)" />
    <path
       sodipodi:type="arc"
       style="fill:#000000;fill-opacity:1;fill-rule:evenodd;stroke:none"
       id="path2985-2"
       sodipodi:cx="0.48929265"
       sodipodi:cy="0.56138712"
       sodipodi:rx="1.0259361"
       sodipodi:ry="0.99436891"
       d="m 1.5152288,0.56138712 a 1.0259361,0.99436891 0 1 1 -2.05187228,0 1.0259361,0.99436891 0 1 1 2.05187228,0 z"
       transform="matrix(0.53846151,0,0,0.57142857,0.77036277,1045.9016)" />
    <path
       sodipodi:type="arc"
       style="fill:#000000;fill-opacity:1;fill-rule:evenodd;stroke:none"
       id="path2985-8-3"
       sodipodi:cx="0.48929265"
       sodipodi:cy="0.56138712"
       sodipodi:rx="1.0259361"
       sodipodi:ry="0.99436891"
       d="m 1.5152288,0.56138712 a 1.0259361,0.99436891 0 1 1 -2.05187228,0 1.0259361,0.99436891 0 1 1 2.05187228,0 z"
       transform="matrix(0.35384612,0,0,0.31746032,3.1335369,1045.255)" />
    <path
       sodipodi:type="arc"
       style="fill:#000000;fill-opacity:1;fill-rule:evenodd;stroke:none"
       id="path2985-6-3"
       sodipodi:cx="0.48929265"
       sodipodi:cy="0.56138712"
       sodipodi:rx="1.0259361"
       sodipodi:ry="0.99436891"
       d="m 1.5152288,0.56138712 a 1.0259361,0.99436891 0 1 1 -2.05187228,0 1.0259361,0.99436891 0 1 1 2.05187228,0 z"
       transform="matrix(0.30769227,0,0,0.38095238,7.5439698,1045.1089)" />
    <path
       sodipodi:type="arc"
       style="fill:#000000;fill-opacity:1;fill-rule:evenodd;stroke:none"
       id="path2985-29"
       sodipodi:cx="0.48929265"
       sodipodi:cy="0.56138712"
       sodipodi:rx="1.0259361"
       sodipodi:ry="0.99436891"
       d="m 1.5152288,0.56138712 a 1.0259361,0.99436891 0 1 1 -2.05187228,0 1.0259361,0.99436891 0 1 1 2.05187228,0 z"
       transform="matrix(0.53846151,0,0,0.57142857,4.5584348,1045.4912)" />
    <path
       sodipodi:type="arc"
       style="fill:#000000;fill-opacity:1;fill-rule:evenodd;stroke:none"
       id="path2985-8-9"
       sodipodi:cx="0.48929265"
       sodipodi:cy="0.56138712"
       sodipodi:rx="1.0259361"
       sodipodi:ry="0.99436891"
       d="m 1.5152288,0.56138712 a 1.0259361,0.99436891 0 1 1 -2.05187228,0 1.0259361,0.99436891 0 1 1 2.05187228,0 z"
       transform="matrix(0.35384612,0,0,0.31746032,4.8697367,1049.9427)" />
    <path
       sodipodi:type="arc"
       style="fill:#000000;fill-opacity:1;fill-rule:evenodd;stroke:none"
       id="path2985-6-2"
       sodipodi:cx="0.48929265"
       sodipodi:cy="0.56138712"
       sodipodi:rx="1.0259361"
       sodipodi:ry="0.99436891"
       d="m 1.5152288,0.56138712 a 1.0259361,0.99436891 0 1 1 -2.05187228,0 1.0259361,0.99436891 0 1 1 2.05187228,0 z"
       transform="matrix(0.30769227,0,0,0.38095238,7.2756481,1048.676)" />
    <path
       sodipodi:type="arc"
       style="fill:#000000;fill-opacity:1;fill-rule:evenodd;stroke:none"
       id="path2985-5"
       sodipodi:cx="0.48929265"
       sodipodi:cy="0.56138712"
       sodipodi:rx="1.0259361"
       sodipodi:ry="0.99436891"
       d="m 1.5152288,0.56138712 a 1.0259361,0.99436891 0 1 1 -2.05187228,0 1.0259361,0.99436891 0 1 1 2.05187228,0 z"
       transform="matrix(0.53846151,0,0,0.57142857,6.3104181,1051.047)" />
    <path
       sodipodi:type="arc"
       style="fill:#000000;fill-opacity:1;fill-rule:evenodd;stroke:none"
       id="path2985-8-4"
       sodipodi:cx="0.48929265"
       sodipodi:cy="0.56138712"
       sodipodi:rx="1.0259361"
       sodipodi:ry="0.99436891"
       d="m 1.5152288,0.56138712 a 1.0259361,0.99436891 0 1 1 -2.05187228,0 1.0259361,0.99436891 0 1 1 2.05187228,0 z"
       transform="matrix(0.35384612,0,0,0.31746032,8.0895979,1050.6056)" />
    <path
       sodipodi:type="arc"
       style="fill:#000000;fill-opacity:1;fill-rule:evenodd;stroke:none"
       id="path2985-6-37"
       sodipodi:cx="0.48929265"
       sodipodi:cy="0.56138712"
       sodipodi:rx="1.0259361"
       sodipodi:ry="0.99436891"
       d="m 1.5152288,0.56138712 a 1.0259361,0.99436891 0 1 1 -2.05187228,0 1.0259361,0.99436891 0 1 1 2.05187228,0 z"
       transform="matrix(0.30769227,0,0,0.38095238,9.0749823,1051.4696)" />
    <path
       sodipodi:type="arc"
       style="fill:#000000;fill-opacity:1;fill-rule:evenodd;stroke:none"
       id="path2985-69"
       sodipodi:cx="0.48929265"
       sodipodi:cy="0.56138712"
       sodipodi:rx="1.0259361"
       sodipodi:ry="0.99436891"
       d="m 1.5152288,0.56138712 a 1.0259361,0.99436891 0 1 1 -2.05187228,0 1.0259361,0.99436891 0 1 1 2.05187228,0 z"
       transform="matrix(0.53846151,0,0,0.57142857,8.8515832,1046.6592)" />
    <path
       sodipodi:type="arc"
       style="fill:#000000;fill-opacity:1;fill-rule:evenodd;stroke:none"
       id="path2985-8-8"
       sodipodi:cx="0.48929265"
       sodipodi:cy="0.56138712"
       sodipodi:rx="1.0259361"
       sodipodi:ry="0.99436891"
       d="m 1.5152288,0.56138712 a 1.0259361,0.99436891 0 1 1 -2.05187228,0 1.0259361,0.99436891 0 1 1 2.05187228,0 z"
       transform="matrix(0.35384612,0,0,0.31746032,7.1110126,1047.1016)" />
    <path
       sodipodi:type="arc"
       style="fill:#000000;fill-opacity:1;fill-rule:evenodd;stroke:none"
       id="path2985-6-26"
       sodipodi:cx="0.48929265"
       sodipodi:cy="0.56138712"
       sodipodi:rx="1.0259361"
       sodipodi:ry="0.99436891"
       d="m 1.5152288,0.56138712 a 1.0259361,0.99436891 0 1 1 -2.05187228,0 1.0259361,0.99436891 0 1 1 2.05187228,0 z"
       transform="matrix(0.30769227,0,0,0.38095238,9.1223332,1049.0705)" />
    <path
       sodipodi:type="arc"
       style="fill:#000000;fill-opacity:1;fill-rule:evenodd;stroke:none"
       id="path2985-4"
       sodipodi:cx="0.48929265"
       sodipodi:cy="0.56138712"
       sodipodi:rx="1.0259361"
       sodipodi:ry="0.99436891"
       d="m 1.5152288,0.56138712 a 1.0259361,0.99436891 0 1 1 -2.05187228,0 1.0259361,0.99436891 0 1 1 2.05187228,0 z"
       transform="matrix(0.53846151,0,0,0.57142857,5.9316109,1043.5024)" />
    <path
       sodipodi:type="arc"
       style="fill:#000000;fill-opacity:1;fill-rule:evenodd;stroke:none"
       id="path2985-8-84"
       sodipodi:cx="0.48929265"
       sodipodi:cy="0.56138712"
       sodipodi:rx="1.0259361"
       sodipodi:ry="0.99436891"
       d="m 1.5152288,0.56138712 a 1.0259361,0.99436891 0 1 1 -2.05187228,0 1.0259361,0.99436891 0 1 1 2.05187228,0 z"
       transform="matrix(0.35384612,0,0,0.31746032,8.2316506,1043.0452)" />
    <path
       sodipodi:type="arc"
       style="fill:#000000;fill-opacity:1;fill-rule:evenodd;stroke:none"
       id="path2985-6-4"
       sodipodi:cx="0.48929265"
       sodipodi:cy="0.56138712"
       sodipodi:rx="1.0259361"
       sodipodi:ry="0.99436891"
       d="m 1.5152288,0.56138712 a 1.0259361,0.99436891 0 1 1 -2.05187228,0 1.0259361,0.99436891 0 1 1 2.05187228,0 z"
       transform="matrix(0.30769227,0,0,0.38095238,9.0749823,1044.5248)" />
    <path
       sodipodi:type="arc"
       style="fill:#000000;fill-opacity:1;fill-rule:evenodd;stroke:none"
       id="path2985-7"
       sodipodi:cx="0.48929265"
       sodipodi:cy="0.56138712"
       sodipodi:rx="1.0259361"
       sodipodi:ry="0.99436891"
       d="m 1.5152288,0.56138712 a 1.0259361,0.99436891 0 1 1 -2.05187228,0 1.0259361,0.99436891 0 1 1 2.05187228,0 z"
       transform="matrix(0.53846151,0,0,0.57142857,2.5065624,1046.8328)" />
    <path
       sodipodi:type="arc"
       style="fill:#000000;fill-opacity:1;fill-rule:evenodd;stroke:none"
       id="path2985-8-0"
       sodipodi:cx="0.48929265"
       sodipodi:cy="0.56138712"
       sodipodi:rx="1.0259361"
       sodipodi:ry="0.99436891"
       d="m 1.5152288,0.56138712 a 1.0259361,0.99436891 0 1 1 -2.05187228,0 1.0259361,0.99436891 0 1 1 2.05187228,0 z"
       transform="matrix(0.35384612,0,0,0.31746032,1.3499864,1044.7972)" />
    <path
       sodipodi:type="arc"
       style="fill:#000000;fill-opacity:1;fill-rule:evenodd;stroke:none"
       id="path2985-6-5"
       sodipodi:cx="0.48929265"
       sodipodi:cy="0.56138712"
       sodipodi:rx="1.0259361"
       sodipodi:ry="0.99436891"
       d="m 1.5152288,0.56138712 a 1.0259361,0.99436891 0 1 1 -2.05187228,0 1.0259361,0.99436891 0 1 1 2.05187228,0 z"
       transform="matrix(0.30769227,0,0,0.38095238,0.93062738,1049.0389)" />
    <path
       sodipodi:type="arc"
       style="fill:#000000;fill-opacity:1;fill-rule:evenodd;stroke:none"
       id="path2985-3"
       sodipodi:cx="0.48929265"
       sodipodi:cy="0.56138712"
       sodipodi:rx="1.0259361"
       sodipodi:ry="0.99436891"
       d="m 1.5152288,0.56138712 a 1.0259361,0.99436891 0 1 1 -2.05187228,0 1.0259361,0.99436891 0 1 1 2.05187228,0 z"
       transform="matrix(0.53846151,0,0,0.57142857,0.69144456,1051.1416)" />
    <path
       sodipodi:type="arc"
       style="fill:#000000;fill-opacity:1;fill-rule:evenodd;stroke:none"
       id="path2985-8-35"
       sodipodi:cx="0.48929265"
       sodipodi:cy="0.56138712"
       sodipodi:rx="1.0259361"
       sodipodi:ry="0.99436891"
       d="m 1.5152288,0.56138712 a 1.0259361,0.99436891 0 1 1 -2.05187228,0 1.0259361,0.99436891 0 1 1 2.05187228,0 z"
       transform="matrix(0.35384612,0,0,0.31746032,0.8606937,1050.0689)" />
    <path
       sodipodi:type="arc"
       style="fill:#000000;fill-opacity:1;fill-rule:evenodd;stroke:none"
       id="path2985-6-6"
       sodipodi:cx="0.48929265"
       sodipodi:cy="0.56138712"
       sodipodi:rx="1.0259361"
       sodipodi:ry="0.99436891"
       d="m 1.5152288,0.56138712 a 1.0259361,0.99436891 0 1 1 -2.05187228,0 1.0259361,0.99436891 0 1 1 2.05187228,0 z"
       transform="matrix(0.30769227,0,0,0.38095238,5.1132902,1051.4064)" />
    <path
       sodipodi:type="arc"
       style="fill:#000000;fill-opacity:1;fill-rule:evenodd;stroke:none"
       id="path2985-56"
       sodipodi:cx="0.48929265"
       sodipodi:cy="0.56138712"
       sodipodi:rx="1.0259361"
       sodipodi:ry="0.99436891"
       d="m 1.5152288,0.56138712 a 1.0259361,0.99436891 0 1 1 -2.05187228,0 1.0259361,0.99436891 0 1 1 2.05187228,0 z"
       transform="matrix(0.53846151,0,0,0.57142857,3.0589896,1050.8261)" />
    <path
       sodipodi:type="arc"
       style="fill:#000000;fill-opacity:1;fill-rule:evenodd;stroke:none"
       id="path2985-8-41"
       sodipodi:cx="0.48929265"
       sodipodi:cy="0.56138712"
       sodipodi:rx="1.0259361"
       sodipodi:ry="0.99436891"
       d="m 1.5152288,0.56138712 a 1.0259361,0.99436891 0 1 1 -2.05187228,0 1.0259361,0.99436891 0 1 1 2.05187228,0 z"
       transform="matrix(0.35384612,0,0,0.31746032,2.7073788,1049.706)" />
    <path
       sodipodi:type="arc"
       style="fill:#000000;fill-opacity:1;fill-rule:evenodd;stroke:none"
       id="path2985-6-0"
       sodipodi:cx="0.48929265"
       sodipodi:cy="0.56138712"
       sodipodi:rx="1.0259361"
       sodipodi:ry="0.99436891"
       d="m 1.5152288,0.56138712 a 1.0259361,0.99436891 0 1 1 -2.05187228,0 1.0259361,0.99436891 0 1 1 2.05187228,0 z"
       transform="matrix(0.30769227,0,0,0.38095238,6.2497118,1049.7966)" />
    <path
       sodipodi:type="arc"
       style="fill:#000000;fill-opacity:1;fill-rule:evenodd;stroke:none"
       id="path2985-8-9-0"
       sodipodi:cx="0.48929265"
       sodipodi:cy="0.56138712"
       sodipodi:rx="1.0259361"
       sodipodi:ry="0.99436891"
       d="m 1.5152288,0.56138712 a 1.0259361,0.99436891 0 1 1 -2.05187228,0 1.0259361,0.99436891 0 1 1 2.05187228,0 z"
       transform="matrix(0.35384612,0,0,0.31746032,5.0591403,1048.4827)" />
    <path
       sodipodi:type="arc"
       style="fill:#000000;fill-opacity:1;fill-rule:evenodd;stroke:none"
       id="path2985-8-41-4"
       sodipodi:cx="0.48929265"
       sodipodi:cy="0.56138712"
       sodipodi:rx="1.0259361"
       sodipodi:ry="0.99436891"
       d="m 1.5152288,0.56138712 a 1.0259361,0.99436891 0 1 1 -2.05187228,0 1.0259361,0.99436891 0 1 1 2.05187228,0 z"
       transform="matrix(0.35384612,0,0,0.31746032,2.8967824,1048.246)" />
    <path
       sodipodi:type="arc"
       style="fill:#000000;fill-opacity:1;fill-rule:evenodd;stroke:none"
       id="path2985-8-9-2"
       sodipodi:cx="0.48929265"
       sodipodi:cy="0.56138712"
       sodipodi:rx="1.0259361"
       sodipodi:ry="0.99436891"
       d="m 1.5152288,0.56138712 a 1.0259361,0.99436891 0 1 1 -2.05187228,0 1.0259361,0.99436891 0 1 1 2.05187228,0 z"
       transform="matrix(0.35384612,0,0,0.31746032,6.2429128,1046.3045)" />
    <path
       sodipodi:type="arc"
       style="fill:#000000;fill-opacity:1;fill-rule:evenodd;stroke:none"
       id="path2985-8-41-9"
       sodipodi:cx="0.48929265"
       sodipodi:cy="0.56138712"
       sodipodi:rx="1.0259361"
       sodipodi:ry="0.99436891"
       d="m 1.5152288,0.56138712 a 1.0259361,0.99436891 0 1 1 -2.05187228,0 1.0259361,0.99436891 0 1 1 2.05187228,0 z"
       transform="matrix(0.35384612,0,0,0.31746032,4.7434675,1047.2989)" />
    <path
       sodipodi:type="arc"
       style="fill:#000000;fill-opacity:1;fill-rule:evenodd;stroke:none"
       id="path2985-8-9-5"
       sodipodi:cx="0.48929265"
       sodipodi:cy="0.56138712"
       sodipodi:rx="1.0259361"
       sodipodi:ry="0.99436891"
       d="m 1.5152288,0.56138712 a 1.0259361,0.99436891 0 1 1 -2.05187228,0 1.0259361,0.99436891 0 1 1 2.05187228,0 z"
       transform="matrix(0.35384612,0,0,0.31746032,3.8753677,1049.0983)" />
    <path
       sodipodi:type="arc"
       style="fill:#000000;fill-opacity:1;fill-rule:evenodd;stroke:none"
       id="path2985-8-41-6"
       sodipodi:cx="0.48929265"
       sodipodi:cy="0.56138712"
       sodipodi:rx="1.0259361"
       sodipodi:ry="0.99436891"
       d="m 1.5152288,0.56138712 a 1.0259361,0.99436891 0 1 1 -2.05187228,0 1.0259361,0.99436891 0 1 1 2.05187228,0 z"
       transform="matrix(0.35384612,0,0,0.31746032,0.89226091,1047.883)" />
  </g>
</svg>
